<?xml version="1.0" standalone="no"?>
<!DOCTYPE svg PUBLIC "-//W3C//DTD SVG 20010904//EN" "http://www.w3.org/TR/2001/REC-SVG-20010904/DTD/svg10.dtd">
<svg version="1.0" xmlns="http://www.w3.org/2000/svg"
     width="263.000000pt" height="260.000000pt" viewBox="0 0 263.000000 260.000000"
     preserveAspectRatio="xMidYMid meet">

    <g transform="translate(0.000000,260.000000) scale(0.100000,-0.100000)"
       fill="#FFFFFF" stroke="#FFFFFF" stroke-width="120">
        <path d="M1095 2484 c-496 -90 -892 -494 -980 -1002 -19 -110 -19 -296 0 -408
97 -558 580 -984 1145 -1011 596 -29 1125 378 1255 967 23 106 30 301 15 413
-71 528 -476 951 -994 1042 -110 19 -332 18 -441 -1z m170 -126 c-39 -289
-128 -486 -304 -671 -101 -106 -185 -168 -316 -232 -125 -62 -254 -101 -369
-113 l-79 -8 7 66 c15 168 92 374 195 523 61 88 184 212 272 274 160 112 397
200 547 202 l52 1 -5 -42z m251 31 c141 -25 310 -95 439 -182 87 -59 225 -197
285 -283 103 -149 177 -345 195 -516 l7 -68 -48 0 c-63 0 -200 31 -289 65
-310 117 -559 366 -668 670 -26 75 -52 188 -62 273 l-6 52 44 0 c24 0 70 -5
103 -11z m-167 -356 c54 -156 172 -334 302 -459 123 -117 255 -200 418 -262
l75 -29 -75 -28 c-164 -61 -309 -155 -440 -287 -124 -124 -233 -293 -285 -446
-10 -28 -21 -52 -24 -52 -3 0 -14 24 -25 52 -55 159 -160 323 -284 447 -131
132 -272 223 -440 286 l-74 28 84 32 c320 121 600 404 710 718 13 37 26 67 29
67 3 0 16 -30 29 -67z m-930 -834 c230 -57 453 -201 605 -391 80 -99 177 -288
205 -401 22 -83 45 -236 38 -244 -8 -7 -161 16 -244 38 -115 29 -302 125 -404
208 -234 189 -387 467 -415 755 l-7 69 69 -7 c38 -3 107 -16 153 -27z m2017
-31 c-57 -522 -453 -926 -979 -998 -44 -6 -81 -9 -84 -7 -2 3 1 43 7 88 38
289 186 552 410 731 169 136 436 242 619 247 l34 1 -7 -62z"/>
    </g>
</svg>